<?xml version="1.0" encoding="UTF-8"?>
<svg version="1.1" xmlns="http://www.w3.org/2000/svg" width="500" height="500">
<path d="M0 0 C165 0 330 0 500 0 C500 165 500 330 500 500 C335 500 170 500 0 500 C0 335 0 170 0 0 Z " fill="#FEFEFE" transform="translate(0,0)"/>
<path d="M0 0 C3.07761216 1.4590803 4.81107839 2.70146195 6.9375 5.375 C9.94254518 8.92183529 13.1769109 12.0804307 16.625 15.1875 C22.52223483 20.53293627 28.21935803 26.0725214 33.86224365 31.68399048 C34.82855818 32.64414379 35.79669937 33.60246224 36.7666626 34.55892944 C38.13732564 35.91171887 39.50046744 37.27211602 40.86328125 38.6328125 C41.66032471 39.42574707 42.45736816 40.21868164 43.27856445 41.03564453 C45 43 45 43 45 45 C43.35 45.66 41.7 46.32 40 47 C27.13 34.13 14.26 21.26 1 8 C-2.465 10.97 -2.465 10.97 -6 14 C-7.82478341 15.2243478 -9.64997304 16.44840166 -11.49351501 17.64431763 C-22.71990601 25.16514759 -35.09772953 35.0291204 -37.90899658 48.92126465 C-41.3848323 70.26326771 -38.93709753 92.7727037 -38 114 C-10.28 114 17.44 114 46 114 C46 115.65 46 117.3 46 119 C16.63 119 -12.74 119 -43 119 C-48.50524205 46.66368009 -48.50524205 46.66368009 -34.83112526 30.00197792 C-30.69840152 25.22897802 -26.25456137 20.89891014 -21.5 16.75 C-20.98581387 16.30087124 -20.47162773 15.85174248 -19.9418602 15.38900375 C-13.57091069 9.88085668 -6.94312732 4.76798099 0 0 Z " fill="#474544" transform="translate(110,171)"/>
<path d="M0 0 C4.62 0 9.24 0 14 0 C18 4 18 4 18.50170898 6.9609375 C18.49985596 8.08757812 18.49800293 9.21421875 18.49609375 10.375 C18.49673828 11.60734375 18.49738281 12.8396875 18.49804688 14.109375 C18.47806641 15.39328125 18.45808594 16.6771875 18.4375 18 C18.44458984 19.28390625 18.45167969 20.5678125 18.45898438 21.890625 C18.38612603 32.60640567 18.38612603 32.60640567 15 36 C12 37 12 37 0 37 C0 24.79 0 12.58 0 0 Z " fill="#42403F" transform="translate(227,228)"/>
<path d="M0 0 C2.75329021 1.79562405 4.52627461 3.05254922 6 6 C6.27118225 10.26536807 6.23165107 14.53949194 6.25 18.8125 C6.270625 20.00166016 6.29125 21.19082031 6.3125 22.41601562 C6.31765625 23.56392578 6.3228125 24.71183594 6.328125 25.89453125 C6.34214355 27.47004761 6.34214355 27.47004761 6.35644531 29.07739258 C5.94776859 32.42826178 4.98880451 34.29671475 3 37 C0.67313547 38.16343227 -0.84721413 38.19895988 -3.4375 38.25 C-4.21996094 38.27578125 -5.00242187 38.3015625 -5.80859375 38.328125 C-8.53677498 37.91962728 -9.3441611 37.16727539 -11 35 C-12.75708479 29.72874564 -12.31190791 24.14268964 -12.375 18.625 C-12.41238281 17.39265625 -12.44976562 16.1603125 -12.48828125 14.890625 C-12.58716861 4.7601647 -12.58716861 4.7601647 -9.6953125 1.68359375 C-6.13365522 -0.5411516 -4.13033532 -0.66380389 0 0 Z " fill="#464443" transform="translate(301,227)"/>
<path d="M0 0 C1.98 0 3.96 0 6 0 C6 12.54 6 25.08 6 38 C4.02 38 2.04 38 0 38 C-2.42608926 32.76548649 -3.94833897 27.68630008 -5.1875 22.0625 C-5.785625 19.401875 -6.38375 16.74125 -7 14 C-7.33 21.92 -7.66 29.84 -8 38 C-9.65 38 -11.3 38 -13 38 C-13 25.79 -13 13.58 -13 1 C-10.36 1 -7.72 1 -5 1 C-3.68 5.62 -2.36 10.24 -1 15 C-0.67 10.05 -0.34 5.1 0 0 Z " fill="#494746" transform="translate(214,227)"/>
<path d="M0 0 C2.31 0 4.62 0 7 0 C9.19406593 5.21806114 10.55093929 10.53308913 12 16 C12.33 10.72 12.66 5.44 13 0 C14.65 0 16.3 0 18 0 C18 12.21 18 24.42 18 37 C16.02 37 14.04 37 12 37 C11.37327179 34.8338326 10.74870669 32.66703932 10.125 30.5 C9.60292969 28.69015625 9.60292969 28.69015625 9.0703125 26.84375 C7.97627872 22.91481116 6.98916097 18.95664389 6 15 C5.67 22.26 5.34 29.52 5 37 C3.35 37 1.7 37 0 37 C0 24.79 0 12.58 0 0 Z " fill="#403E3D" transform="translate(375,228)"/>
<path d="M0 0 C2.69990662 1.79993774 4.5418865 3.083773 6 6 C6.04022391 8.3329866 6.04320247 10.66706666 6 13 C4.02 13 2.04 13 0 13 C-0.33 11.02 -0.66 9.04 -1 7 C-2.32 7 -3.64 7 -5 7 C-5 15.25 -5 23.5 -5 32 C-3.68 32 -2.36 32 -1 32 C-0.505 27.545 -0.505 27.545 0 23 C-0.99 23 -1.98 23 -3 23 C-3 21.02 -3 19.04 -3 17 C-0.03 17 2.94 17 6 17 C6.08139142 19.39652528 6.14067009 21.79025436 6.1875 24.1875 C6.21263672 24.86103516 6.23777344 25.53457031 6.26367188 26.22851562 C6.32907182 30.69751197 5.75630065 33.45618488 3 37 C0.67313547 38.16343227 -0.84721413 38.19895988 -3.4375 38.25 C-4.21996094 38.27578125 -5.00242187 38.3015625 -5.80859375 38.328125 C-8.53677498 37.91962728 -9.3441611 37.16727539 -11 35 C-12.70904915 29.87285256 -12.26897871 24.49262602 -12.3125 19.125 C-12.34150391 17.94035156 -12.37050781 16.75570312 -12.40039062 15.53515625 C-12.40876953 14.39175781 -12.41714844 13.24835938 -12.42578125 12.0703125 C-12.44036377 11.02633301 -12.45494629 9.98235352 -12.4699707 8.90673828 C-11.88254086 5.27352287 -10.52395521 3.62585311 -8 1 C-5.14675563 -0.42662219 -3.16545451 -0.31033868 0 0 Z " fill="#484645" transform="translate(412,227)"/>
<path d="M0 0 C1.65 0 3.3 0 5 0 C5 5.28 5 10.56 5 16 C7.31 16 9.62 16 12 16 C12 10.72 12 5.44 12 0 C13.98 0 15.96 0 18 0 C18 12.21 18 24.42 18 37 C16.02 37 14.04 37 12 37 C12 31.72 12 26.44 12 21 C10.02 21 8.04 21 6 21 C6 26.28 6 31.56 6 37 C4.02 37 2.04 37 0 37 C0 24.79 0 12.58 0 0 Z " fill="#42403F" transform="translate(264,228)"/>
<path d="M0 0 C4.29 0 8.58 0 13 0 C17 4 17 4 17.49609375 7.3125 C17.47675781 8.529375 17.45742187 9.74625 17.4375 11 C17.43621094 12.216875 17.43492188 13.43375 17.43359375 14.6875 C16.97759543 18.17116281 16.55722081 19.6270834 14 22 C11.30469001 22.8039548 8.83352598 22.81419502 6 23 C6 27.62 6 32.24 6 37 C4.02 37 2.04 37 0 37 C0 24.79 0 12.58 0 0 Z " fill="#444241" transform="translate(106,228)"/>
<path d="M0 0 C1.98 0 3.96 0 6 0 C6.33 4.95 6.66 9.9 7 15 C8.98 10.38 10.96 5.76 13 1 C14.98 1 16.96 1 19 1 C17.70728312 5.30905626 16.01056456 8.94354803 13.70703125 12.77734375 C11.82708486 18.68723047 14.8958082 24.94285003 17.0625 30.4375 C17.34416016 31.16904297 17.62582031 31.90058594 17.91601562 32.65429688 C18.60413247 34.43873546 19.30114606 36.21973905 20 38 C18.02 38 16.04 38 14 38 C13.15973604 36.23244474 12.32801278 34.46082737 11.5 32.6875 C11.0359375 31.70136719 10.571875 30.71523438 10.09375 29.69921875 C9 27 9 27 9 24 C8.34 24 7.68 24 7 24 C6.67 28.62 6.34 33.24 6 38 C4.02 38 2.04 38 0 38 C0 25.46 0 12.92 0 0 Z " fill="#484645" transform="translate(129,227)"/>
<path d="M0 0 C1.65 0 3.3 0 5 0 C5.33 9.9 5.66 19.8 6 30 C7.32 30.33 8.64 30.66 10 31 C11.88631543 29.11368457 11.24265292 25.85799307 11.31640625 23.33984375 C11.33718735 22.67537735 11.35796844 22.01091095 11.37937927 21.3263092 C11.44493658 19.19681457 11.50378785 17.06719332 11.5625 14.9375 C11.60567939 13.49673153 11.64929349 12.05597601 11.69335938 10.61523438 C11.80062393 7.0769596 11.90187371 3.53854131 12 0 C13.65 0 15.3 0 17 0 C17.09901748 4.62640153 17.17153649 9.25218387 17.21972656 13.87939453 C17.2398188 15.45274604 17.26709799 17.02602308 17.30175781 18.59912109 C17.35038494 20.86314272 17.37299135 23.12617573 17.390625 25.390625 C17.41127014 26.09181458 17.43191528 26.79300415 17.45318604 27.51544189 C17.45475526 30.94546299 17.23821739 32.69146468 15.11425781 35.44238281 C12.68883652 37.22924053 11.48426716 37.54088037 8.5 37.5 C7.37078125 37.51546875 7.37078125 37.51546875 6.21875 37.53125 C3.05425295 36.77355352 1.98614358 35.57242107 0 33 C-0.34959406 30.31827524 -0.46923774 28.06062042 -0.390625 25.390625 C-0.38496521 24.66381531 -0.37930542 23.93700562 -0.37347412 23.18817139 C-0.35114553 20.87476755 -0.30096048 18.5629328 -0.25 16.25 C-0.22993023 14.67840784 -0.21168029 13.10679132 -0.1953125 11.53515625 C-0.15129293 7.68950283 -0.08229375 3.84501711 0 0 Z " fill="#3E3C3C" transform="translate(314,228)"/>
<path d="M0 0 C2.8125 1.5625 2.8125 1.5625 5 4 C5.8125 7.75 5.8125 7.75 6 11 C4.02 11 2.04 11 0 11 C-0.33 9.68 -0.66 8.36 -1 7 C-2.32 7 -3.64 7 -5 7 C-5.43261434 10.45473454 -5.22689611 11.69700499 -3.1015625 14.53515625 C-2.28429687 15.36917969 -1.46703125 16.20320313 -0.625 17.0625 C5.88393791 23.76773922 5.88393791 23.76773922 6.1171875 28.25390625 C5.47849728 34.34206624 5.47849728 34.34206624 3.5 37.0625 C-0.24919918 38.46844969 -4.05557866 38.74094103 -8 38 C-10.12532367 36.4538749 -10.87137601 35.51351409 -11.51171875 32.95703125 C-11.67447917 30.97135417 -11.83723958 28.98567708 -12 27 C-10.02 27 -8.04 27 -6 27 C-5.67 28.65 -5.34 30.3 -5 32 C-3.68 32 -2.36 32 -1 32 C-1 28.00896263 -1.2135413 25.94408943 -3.8125 22.82421875 C-5.24632416 21.42367979 -6.70429195 20.04734893 -8.1875 18.69921875 C-11.20906786 15.86649888 -11.23461408 13.65299601 -11.375 9.625 C-11.32026916 4.40504629 -11.32026916 4.40504629 -8.875 1.3125 C-5.50176243 -0.22745628 -3.66340993 -0.61056832 0 0 Z " fill="#464443" transform="translate(349,227)"/>
<path d="M0 0 C4.40093281 0.86446895 5.89836569 2.06097945 8.5 5.6875 C8.8125 9 8.8125 9 8.5 11.6875 C6.85 11.6875 5.2 11.6875 3.5 11.6875 C3.17 10.3675 2.84 9.0475 2.5 7.6875 C1.18 7.6875 -0.14 7.6875 -1.5 7.6875 C-1.5 11.67853737 -1.2864587 13.74341057 1.3125 16.86328125 C2.74632416 18.26382021 4.20429195 19.64015107 5.6875 20.98828125 C7.82718598 22.99423685 8.42888942 24.01836112 8.73828125 26.9296875 C8.93460123 33.89388037 8.93460123 33.89388037 7.0625 37.3125 C3.34094093 39.30943414 -0.36428933 39.53292152 -4.5 38.6875 C-6.62282234 37.13841343 -7.37137031 36.20103686 -8.01171875 33.64453125 C-8.17447917 31.65885417 -8.33723958 29.67317708 -8.5 27.6875 C-6.85 27.6875 -5.2 27.6875 -3.5 27.6875 C-2.84 29.3375 -2.18 30.9875 -1.5 32.6875 C-0.51 32.6875 0.48 32.6875 1.5 32.6875 C2.09130428 30.02815953 2.09130428 30.02815953 1.5 26.6875 C-0.59411621 23.79964619 -3.06313626 21.28682133 -5.5 18.6875 C-7.80123652 15.64392912 -8.44797974 14.04513927 -9 10.25 C-8.19529149 4.51645188 -6.01188801 1.18090657 0 0 Z " fill="#454342" transform="translate(90.5,226.3125)"/>
<path d="M0 0 C4.95 0 9.9 0 15 0 C15 1.65 15 3.3 15 5 C12.03 5 9.06 5 6 5 C6 8.63 6 12.26 6 16 C8.64 16 11.28 16 14 16 C14 17.98 14 19.96 14 22 C11.36 22 8.72 22 6 22 C6 26.95 6 31.9 6 37 C4.02 37 2.04 37 0 37 C0 24.79 0 12.58 0 0 Z " fill="#444241" transform="translate(166,228)"/>
<path d="M0 0 C1.98 0 3.96 0 6 0 C6 12.54 6 25.08 6 38 C4.02 38 2.04 38 0 38 C0 25.46 0 12.92 0 0 Z " fill="#4C4A49" transform="translate(361,227)"/>
<path d="M0 0 C1.98 0 3.96 0 6 0 C6 12.21 6 24.42 6 37 C4.02 37 2.04 37 0 37 C0 24.79 0 12.58 0 0 Z " fill="#454342" transform="translate(188,228)"/>
<path d="M0 0 C1.65 0 3.3 0 5 0 C6.74545605 1.74545605 6.1302316 4.16124217 6.1328125 6.53125 C6.13410156 7.65144531 6.13539063 8.77164063 6.13671875 9.92578125 C6.13285156 11.10527344 6.12898437 12.28476563 6.125 13.5 C6.12886719 14.67949219 6.13273438 15.85898438 6.13671875 17.07421875 C6.13542969 18.19441406 6.13414062 19.31460938 6.1328125 20.46875 C6.13168457 21.50451172 6.13055664 22.54027344 6.12939453 23.60742188 C6 26 6 26 5 27 C3.35 27 1.7 27 0 27 C0 18.09 0 9.18 0 0 Z " fill="#FBFBFB" transform="translate(233,233)"/>
<path d="M0 0 C1.65 0.33 3.3 0.66 5 1 C5 9.25 5 17.5 5 26 C3.35 26.33 1.7 26.66 0 27 C-1.74545605 25.25454395 -1.1302316 22.83875783 -1.1328125 20.46875 C-1.13410156 19.34855469 -1.13539063 18.22835937 -1.13671875 17.07421875 C-1.13285156 15.89472656 -1.12898438 14.71523437 -1.125 13.5 C-1.12886719 12.32050781 -1.13273437 11.14101562 -1.13671875 9.92578125 C-1.13542969 8.80558594 -1.13414062 7.68539062 -1.1328125 6.53125 C-1.13168457 5.49548828 -1.13055664 4.45972656 -1.12939453 3.39257812 C-1 1 -1 1 0 0 Z " fill="#F7F7F7" transform="translate(296,233)"/>
<path d="M0 0 C-0.33 1.98 -0.66 3.96 -1 6 C-0.34 6.33 0.32 6.66 1 7 C0.34 7.66 -0.32 8.32 -1 9 C-2.33841672 8.68770276 -3.67139075 8.35169068 -5 8 C-7.18703385 8.37907282 -7.18703385 8.37907282 -9 9 C-9.75 6.75 -9.75 6.75 -10 4 C-7.19641352 -0.14930799 -4.8294638 -0.43904216 0 0 Z " fill="#6E6D6C" transform="translate(209,283)"/>
<path d="M0 0 C1.670625 0.061875 1.670625 0.061875 3.375 0.125 C3.375 2.765 3.375 5.405 3.375 8.125 C-0.42258221 9.13768859 -2.82741779 9.13768859 -6.625 8.125 C-5.59036145 0.19277108 -5.59036145 0.19277108 0 0 Z " fill="#4F4E4D" transform="translate(276.625,282.875)"/>
<path d="M0 0 C2.475 0.495 2.475 0.495 5 1 C5 4.63 5 8.26 5 12 C3.35 12 1.7 12 0 12 C0 8.04 0 4.08 0 0 Z " fill="#FDFDFD" transform="translate(112,233)"/>
<path d="M0 0 C-0.33 1.32 -0.66 2.64 -1 4 C-2.32 4.33 -3.64 4.66 -5 5 C-5 5.66 -5 6.32 -5 7 C-3.35 6.67 -1.7 6.34 0 6 C-0.99 7.485 -0.99 7.485 -2 9 C-4.5625 9.25 -4.5625 9.25 -7 9 C-8 8 -8 8 -8.25 5.625 C-8 3 -8 3 -6.8125 1.1875 C-4.44017475 -0.36678206 -2.77958655 -0.22537188 0 0 Z " fill="#636161" transform="translate(305,283)"/>
<path d="M0 0 C0.763125 0.0825 1.52625 0.165 2.3125 0.25 C1.9825 1.57 1.6525 2.89 1.3125 4.25 C-0.0075 4.58 -1.3275 4.91 -2.6875 5.25 C-2.6875 5.91 -2.6875 6.57 -2.6875 7.25 C-1.0375 6.92 0.6125 6.59 2.3125 6.25 C1.3225 7.735 1.3225 7.735 0.3125 9.25 C-1.3375 8.92 -2.9875 8.59 -4.6875 8.25 C-5.375 6.5 -5.375 6.5 -5.6875 4.25 C-4.14687092 1.16874185 -3.48812938 0.32447715 0 0 Z " fill="#626160" transform="translate(191.6875,282.75)"/>
<path d="M0 0 C0.78375 0.04125 1.5675 0.0825 2.375 0.125 C2.0625 2.0625 2.0625 2.0625 1.375 4.125 C0.385 4.455 -0.605 4.785 -1.625 5.125 C-1.625 5.785 -1.625 6.445 -1.625 7.125 C-0.305 6.795 1.015 6.465 2.375 6.125 C2.375 6.785 2.375 7.445 2.375 8.125 C0.3835944 8.50633299 -1.61779077 8.83825582 -3.625 9.125 C-4.625 8.125 -4.625 8.125 -4.8125 5.1875 C-4.57390036 1.29037256 -3.98646018 0.18983144 0 0 Z " fill="#615F5E" transform="translate(238.625,282.875)"/>
<path d="M0 0 C1.32 0 2.64 0 4 0 C3.67 4.29 3.34 8.58 3 13 C1.68 13.33 0.36 13.66 -1 14 C-0.67 9.38 -0.34 4.76 0 0 Z " fill="#585655" transform="translate(216,278)"/>
<path d="M0 0 C0.33 0.99 0.66 1.98 1 3 C0.01 3.495 0.01 3.495 -1 4 C-1 5.32 -1 6.64 -1 8 C-0.34 8.33 0.32 8.66 1 9 C0.34 9.66 -0.32 10.32 -1 11 C-2.32 11 -3.64 11 -5 11 C-5.08096803 9.54257537 -5.13917774 8.08387193 -5.1875 6.625 C-5.22230469 5.81289063 -5.25710938 5.00078125 -5.29296875 4.1640625 C-5.19628906 3.44992187 -5.09960938 2.73578125 -5 2 C-2 0 -2 0 0 0 Z " fill="#535150" transform="translate(291,281)"/>
<path d="M0 0 C0.33 0.99 0.66 1.98 1 3 C0.01 3.495 0.01 3.495 -1 4 C-1 5.32 -1 6.64 -1 8 C-0.34 8.33 0.32 8.66 1 9 C0.34 9.66 -0.32 10.32 -1 11 C-2.32 11 -3.64 11 -5 11 C-5.08096803 9.54257537 -5.13917774 8.08387193 -5.1875 6.625 C-5.22230469 5.81289063 -5.25710938 5.00078125 -5.29296875 4.1640625 C-5.19628906 3.44992187 -5.09960938 2.73578125 -5 2 C-2 0 -2 0 0 0 Z " fill="#535150" transform="translate(264,281)"/>
<path d="M0 0 C1.65 0 3.3 0 5 0 C4.67 0.66 4.34 1.32 4 2 C3.34 1.67 2.68 1.34 2 1 C2.99 2.32 3.98 3.64 5 5 C4.34 6.32 3.68 7.64 3 9 C1.35 9 -0.3 9 -2 9 C-1.67 8.01 -1.34 7.02 -1 6 C0.485 6.99 0.485 6.99 2 8 C1.484375 7.4225 0.96875 6.845 0.4375 6.25 C-1 4 -1 4 -0.6875 1.75 C-0.460625 1.1725 -0.23375 0.595 0 0 Z " fill="#535251" transform="translate(248,283)"/>
<path d="M0 0 C1.670625 0.061875 1.670625 0.061875 3.375 0.125 C3.375 0.785 3.375 1.445 3.375 2.125 C2.385 2.455 1.395 2.785 0.375 3.125 C-0.85020264 6.13347418 -0.85020264 6.13347418 -1.625 9.125 C-2.615 9.125 -3.605 9.125 -4.625 9.125 C-4.295 7.145 -3.965 5.165 -3.625 3.125 C-4.285 2.795 -4.945 2.465 -5.625 2.125 C-3.625 0.125 -3.625 0.125 0 0 Z " fill="#585655" transform="translate(178.625,282.875)"/>
<path d="M0 0 C0.66 0 1.32 0 2 0 C5 4.38461538 5 4.38461538 5 7 C3.68 7.33 2.36 7.66 1 8 C1 7.01 1 6.02 1 5 C0.01 5.33 -0.98 5.66 -2 6 C-1.125 1.125 -1.125 1.125 0 0 Z " fill="#929090" transform="translate(275,284)"/>
<path d="M0 0 C1.0625 1.875 1.0625 1.875 2 4 C1.67 4.66 1.34 5.32 1 6 C0.01 6 -0.98 6 -2 6 C-2 4.35 -2 2.7 -2 1 C-1.34 0.67 -0.68 0.34 0 0 Z " fill="#514F4E" transform="translate(217,286)"/>
</svg>
